<svg width="24" height="24" viewBox="0 0 24 24" fill="none" xmlns="http://www.w3.org/2000/svg">
<path d="M8.46006 14.51C8.36151 14.5105 8.26387 14.4913 8.17286 14.4535C8.08185 14.4157 7.9993 14.3601 7.93005 14.29L6.12005 12.48C6.0493 12.4111 5.99306 12.3287 5.95466 12.2376C5.91627 12.1466 5.89648 12.0488 5.89648 11.95C5.89648 11.8512 5.91627 11.7534 5.95466 11.6624C5.99306 11.5714 6.0493 11.489 6.12005 11.42L8.12006 9.42002C8.26068 9.27957 8.4513 9.20068 8.65005 9.20068C8.84881 9.20068 9.03943 9.27957 9.18006 9.42002C9.32051 9.56065 9.3994 9.75127 9.3994 9.95002C9.3994 10.1488 9.32051 10.3394 9.18006 10.48L7.71006 12L9.00006 13.23C9.14051 13.3706 9.2194 13.5613 9.2194 13.76C9.2194 13.9588 9.14051 14.1494 9.00006 14.29C8.92964 14.3614 8.84546 14.4176 8.75264 14.4555C8.65981 14.4933 8.56027 14.5118 8.46006 14.51V14.51Z" fill="black"/>
<path d="M15.54 14.5099C15.4414 14.5103 15.3438 14.4911 15.2528 14.4533C15.1618 14.4156 15.0792 14.36 15.01 14.2899C14.8695 14.1492 14.7906 13.9586 14.7906 13.7599C14.7906 13.5611 14.8695 13.3705 15.01 13.2299L16.29 11.9999L14.86 10.5699C14.7195 10.4292 14.6406 10.2386 14.6406 10.0399C14.6406 9.84112 14.7195 9.65049 14.86 9.50987C15.0006 9.36942 15.1912 9.29053 15.39 9.29053C15.5887 9.29053 15.7793 9.36942 15.92 9.50987L17.92 11.5099C17.9907 11.5788 18.047 11.6612 18.0854 11.7523C18.1238 11.8433 18.1435 11.9411 18.1435 12.0399C18.1435 12.1387 18.1238 12.2365 18.0854 12.3275C18.047 12.4185 17.9907 12.5009 17.92 12.5699L16.11 14.3799C16.0288 14.4391 15.9363 14.4812 15.8383 14.5035C15.7403 14.5259 15.6388 14.528 15.54 14.5099V14.5099Z" fill="black"/>
<path d="M10.9999 15.4399C10.9142 15.458 10.8256 15.458 10.7399 15.4399C10.6425 15.407 10.5531 15.3542 10.4772 15.2848C10.4014 15.2154 10.3409 15.131 10.2995 15.0369C10.2581 14.9428 10.2367 14.8411 10.2368 14.7384C10.2369 14.6356 10.2584 14.5339 10.2999 14.4399L12.3399 8.79991C12.3741 8.70344 12.4276 8.61498 12.4972 8.53998C12.5669 8.46498 12.6511 8.40502 12.7448 8.36381C12.8385 8.32259 12.9396 8.30098 13.0419 8.30031C13.1443 8.29964 13.2457 8.31992 13.3399 8.35991C13.4373 8.39281 13.5267 8.44565 13.6025 8.51503C13.6784 8.58442 13.7389 8.66885 13.7803 8.76293C13.8217 8.85701 13.843 8.95868 13.843 9.06146C13.8429 9.16424 13.8214 9.26588 13.7799 9.35991L11.6599 14.9999C11.6002 15.1262 11.5072 15.2339 11.3909 15.3114C11.2746 15.3889 11.1395 15.4334 10.9999 15.4399V15.4399Z" fill="black"/>
<path d="M17.25 22.75H6.75C5.68913 22.75 4.67172 22.3286 3.92157 21.5784C3.17143 20.8283 2.75 19.8109 2.75 18.75V5.25C2.75 4.18913 3.17143 3.17172 3.92157 2.42157C4.67172 1.67143 5.68913 1.25 6.75 1.25H17.25C18.3109 1.25 19.3283 1.67143 20.0784 2.42157C20.8286 3.17172 21.25 4.18913 21.25 5.25V18.75C21.25 19.8109 20.8286 20.8283 20.0784 21.5784C19.3283 22.3286 18.3109 22.75 17.25 22.75ZM6.75 2.75C6.08696 2.75 5.45107 3.01339 4.98223 3.48223C4.51339 3.95107 4.25 4.58696 4.25 5.25V18.75C4.25 19.413 4.51339 20.0489 4.98223 20.5178C5.45107 20.9866 6.08696 21.25 6.75 21.25H17.25C17.913 21.25 18.5489 20.9866 19.0178 20.5178C19.4866 20.0489 19.75 19.413 19.75 18.75V5.25C19.75 4.58696 19.4866 3.95107 19.0178 3.48223C18.5489 3.01339 17.913 2.75 17.25 2.75H6.75Z" fill="black"/>
</svg>
