<svg width="20" height="22" viewBox="0 0 20 22" fill="none" xmlns="http://www.w3.org/2000/svg">
<path d="M6.46006 13.51C6.36151 13.5105 6.26387 13.4913 6.17286 13.4535C6.08185 13.4157 5.9993 13.3601 5.93005 13.29L4.12005 11.48C4.0493 11.4111 3.99306 11.3287 3.95466 11.2376C3.91627 11.1466 3.89648 11.0488 3.89648 10.95C3.89648 10.8512 3.91627 10.7534 3.95466 10.6624C3.99306 10.5714 4.0493 10.489 4.12005 10.42L6.12006 8.42002C6.26068 8.27957 6.4513 8.20068 6.65005 8.20068C6.84881 8.20068 7.03943 8.27957 7.18006 8.42002C7.32051 8.56065 7.3994 8.75127 7.3994 8.95002C7.3994 9.14877 7.32051 9.3394 7.18006 9.48002L5.71006 11L7.00006 12.23C7.14051 12.3706 7.2194 12.5613 7.2194 12.76C7.2194 12.9588 7.14051 13.1494 7.00006 13.29C6.92964 13.3614 6.84546 13.4176 6.75264 13.4555C6.65981 13.4933 6.56027 13.5118 6.46006 13.51V13.51Z" fill="black"/>
<path d="M13.54 13.5099C13.4414 13.5103 13.3438 13.4911 13.2528 13.4533C13.1618 13.4156 13.0792 13.36 13.01 13.2899C12.8695 13.1492 12.7906 12.9586 12.7906 12.7599C12.7906 12.5611 12.8695 12.3705 13.01 12.2299L14.29 10.9999L12.86 9.56987C12.7195 9.42924 12.6406 9.23862 12.6406 9.03987C12.6406 8.84112 12.7195 8.65049 12.86 8.50987C13.0006 8.36942 13.1912 8.29053 13.39 8.29053C13.5887 8.29053 13.7793 8.36942 13.92 8.50987L15.92 10.5099C15.9907 10.5788 16.047 10.6612 16.0854 10.7523C16.1238 10.8433 16.1435 10.9411 16.1435 11.0399C16.1435 11.1387 16.1238 11.2365 16.0854 11.3275C16.047 11.4185 15.9907 11.5009 15.92 11.5699L14.11 13.3799C14.0288 13.4391 13.9363 13.4812 13.8383 13.5035C13.7403 13.5259 13.6388 13.528 13.54 13.5099V13.5099Z" fill="black"/>
<path d="M9.00001 14.4399C8.91429 14.458 8.82574 14.458 8.74001 14.4399C8.64264 14.407 8.55319 14.3542 8.47737 14.2848C8.40154 14.2154 8.341 14.131 8.29961 14.0369C8.25821 13.9428 8.23687 13.8411 8.23694 13.7384C8.23701 13.6356 8.25849 13.5339 8.30001 13.4399L10.34 7.79991C10.3742 7.70344 10.4277 7.61498 10.4974 7.53998C10.567 7.46498 10.6513 7.40502 10.7449 7.36381C10.8386 7.32259 10.9397 7.30098 11.0421 7.30031C11.1444 7.29964 11.2458 7.31992 11.34 7.35991C11.4374 7.39281 11.5268 7.44565 11.6027 7.51503C11.6785 7.58442 11.739 7.66885 11.7804 7.76293C11.8218 7.85701 11.8432 7.95868 11.8431 8.06146C11.843 8.16424 11.8215 8.26588 11.78 8.35991L9.66001 13.9999C9.60028 14.1262 9.5073 14.2339 9.39103 14.3114C9.27476 14.3889 9.1396 14.4334 9.00001 14.4399V14.4399Z" fill="black"/>
<path d="M15.25 21.75H4.75C3.68913 21.75 2.67172 21.3286 1.92157 20.5784C1.17143 19.8283 0.75 18.8109 0.75 17.75V4.25C0.75 3.18913 1.17143 2.17172 1.92157 1.42157C2.67172 0.671427 3.68913 0.25 4.75 0.25H15.25C16.3109 0.25 17.3283 0.671427 18.0784 1.42157C18.8286 2.17172 19.25 3.18913 19.25 4.25V17.75C19.25 18.8109 18.8286 19.8283 18.0784 20.5784C17.3283 21.3286 16.3109 21.75 15.25 21.75ZM4.75 1.75C4.08696 1.75 3.45107 2.01339 2.98223 2.48223C2.51339 2.95107 2.25 3.58696 2.25 4.25V17.75C2.25 18.413 2.51339 19.0489 2.98223 19.5178C3.45107 19.9866 4.08696 20.25 4.75 20.25H15.25C15.913 20.25 16.5489 19.9866 17.0178 19.5178C17.4866 19.0489 17.75 18.413 17.75 17.75V4.25C17.75 3.58696 17.4866 2.95107 17.0178 2.48223C16.5489 2.01339 15.913 1.75 15.25 1.75H4.75Z" fill="black"/>
</svg>
