<svg width="24" height="24" viewBox="0 0 24 24" fill="none" xmlns="http://www.w3.org/2000/svg">
<path fill-rule="evenodd" clip-rule="evenodd" d="M3.09835 4.09835C2 5.1967 2 6.96447 2 10.5V13.5C2 17.0355 2 18.8033 3.09835 19.9017C4.1967 21 5.96447 21 9.5 21H14.5C18.0355 21 19.8033 21 20.9017 19.9017C22 18.8033 22 17.0355 22 13.5V10.5C22 6.96447 22 5.1967 20.9017 4.09835C19.8033 3 18.0355 3 14.5 3H9.5C5.96447 3 4.1967 3 3.09835 4.09835ZM16.0001 7.74991C16.6904 7.74991 17.2501 8.30955 17.2501 8.99991V16.9999C17.2501 17.6903 16.6904 18.2499 16.0001 18.2499C15.3097 18.2499 14.7501 17.6903 14.7501 16.9999V8.99991C14.7501 8.30955 15.3097 7.74991 16.0001 7.74991ZM9.25006 11C9.25006 10.3097 8.69042 9.75003 8.00006 9.75003C7.3097 9.75003 6.75006 10.3097 6.75006 11L6.75006 17C6.75006 17.6904 7.30971 18.25 8.00006 18.25C8.69042 18.25 9.25006 17.6904 9.25006 17L9.25006 11ZM13.25 13C13.25 12.3096 12.6904 11.75 12 11.75C11.3096 11.75 10.75 12.3096 10.75 13V17C10.75 17.6904 11.3096 18.25 12 18.25C12.6904 18.25 13.25 17.6904 13.25 17V13Z" fill="#222222"/>
</svg>
