<svg width="34" height="34" viewBox="0 0 34 34" fill="none" xmlns="http://www.w3.org/2000/svg">
<path d="M0 17C0 26.3888 7.61116 34 17 34C26.3888 34 34 26.3888 34 17C34 7.61116 26.3888 0 17 0C7.61116 0 0 7.61116 0 17Z" fill="#F00073"/>
<path d="M17 9.77539C19.3375 9.77539 19.6563 9.77539 20.6125 9.77539C21.4625 9.77539 21.8875 9.98789 22.2063 10.0941C22.6313 10.3066 22.95 10.4129 23.2688 10.7316C23.5875 11.0504 23.8 11.3691 23.9063 11.7941C24.0125 12.1129 24.1188 12.5379 24.225 13.3879C24.225 14.3441 24.225 14.5566 24.225 17.0004C24.225 19.4441 24.225 19.6566 24.225 20.6129C24.225 21.4629 24.0125 21.8879 23.9063 22.2066C23.6938 22.6316 23.5875 22.9504 23.2688 23.2691C22.95 23.5879 22.6313 23.8004 22.2063 23.9066C21.8875 24.0129 21.4625 24.1191 20.6125 24.2254C19.6563 24.2254 19.4438 24.2254 17 24.2254C14.5563 24.2254 14.3438 24.2254 13.3875 24.2254C12.5375 24.2254 12.1125 24.0129 11.7938 23.9066C11.3688 23.6941 11.05 23.5879 10.7313 23.2691C10.4125 22.9504 10.2 22.6316 10.0938 22.2066C9.98752 21.8879 9.88127 21.4629 9.77502 20.6129C9.77502 19.6566 9.77502 19.4441 9.77502 17.0004C9.77502 14.5566 9.77502 14.3441 9.77502 13.3879C9.77502 12.5379 9.98752 12.1129 10.0938 11.7941C10.3063 11.3691 10.4125 11.0504 10.7313 10.7316C11.05 10.4129 11.3688 10.2004 11.7938 10.0941C12.1125 9.98789 12.5375 9.88164 13.3875 9.77539C14.3438 9.77539 14.6625 9.77539 17 9.77539ZM17 8.18164C14.5563 8.18164 14.3438 8.18164 13.3875 8.18164C12.4313 8.18164 11.7938 8.39414 11.2625 8.60664C10.7313 8.81914 10.2 9.13789 9.66877 9.66914C9.13752 10.2004 8.92502 10.6254 8.60627 11.2629C8.39377 11.7941 8.28752 12.4316 8.18127 13.3879C8.18127 14.3441 8.18127 14.6629 8.18127 17.0004C8.18127 19.4441 8.18127 19.6566 8.18127 20.6129C8.18127 21.5691 8.39377 22.2066 8.60627 22.7379C8.81877 23.2691 9.13752 23.8004 9.66877 24.3316C10.2 24.8629 10.625 25.0754 11.2625 25.3941C11.7938 25.6066 12.4313 25.7129 13.3875 25.8191C14.3438 25.8191 14.6625 25.8191 17 25.8191C19.3375 25.8191 19.6563 25.8191 20.6125 25.8191C21.5688 25.8191 22.2063 25.6066 22.7375 25.3941C23.2688 25.1816 23.8 24.8629 24.3313 24.3316C24.8625 23.8004 25.075 23.3754 25.3938 22.7379C25.6063 22.2066 25.7125 21.5691 25.8188 20.6129C25.8188 19.6566 25.8188 19.3379 25.8188 17.0004C25.8188 14.6629 25.8188 14.3441 25.8188 13.3879C25.8188 12.4316 25.6063 11.7941 25.3938 11.2629C25.1813 10.7316 24.8625 10.2004 24.3313 9.66914C23.8 9.13789 23.375 8.92539 22.7375 8.60664C22.2063 8.39414 21.5688 8.28789 20.6125 8.18164C19.6563 8.18164 19.4438 8.18164 17 8.18164Z" fill="white"/>
<path d="M17 12.4316C14.45 12.4316 12.4313 14.4504 12.4313 17.0004C12.4313 19.5504 14.45 21.5691 17 21.5691C19.55 21.5691 21.5688 19.5504 21.5688 17.0004C21.5688 14.4504 19.55 12.4316 17 12.4316ZM17 19.9754C15.4063 19.9754 14.025 18.7004 14.025 17.0004C14.025 15.4066 15.3 14.0254 17 14.0254C18.5938 14.0254 19.975 15.3004 19.975 17.0004C19.975 18.5941 18.5938 19.9754 17 19.9754Z" fill="white"/>
<path d="M21.675 13.3879C22.2618 13.3879 22.7375 12.9122 22.7375 12.3254C22.7375 11.7386 22.2618 11.2629 21.675 11.2629C21.0882 11.2629 20.6125 11.7386 20.6125 12.3254C20.6125 12.9122 21.0882 13.3879 21.675 13.3879Z" fill="white"/>
</svg>
