<svg width="34" height="34" viewBox="0 0 34 34" fill="none" xmlns="http://www.w3.org/2000/svg">
<path d="M0 17C0 26.3888 7.61116 34 17 34C26.3888 34 34 26.3888 34 17C34 7.61116 26.3888 0 17 0C7.61116 0 0 7.61116 0 17Z" fill="#2867B2"/>
<path d="M12.325 25.5H8.7125V14.1313H12.325V25.5ZM10.5188 12.5375C9.35 12.5375 8.5 11.6875 8.5 10.5187C8.5 9.35 9.45625 8.5 10.5188 8.5C11.6875 8.5 12.5375 9.35 12.5375 10.5187C12.5375 11.6875 11.6875 12.5375 10.5188 12.5375ZM25.5 25.5H21.8875V19.3375C21.8875 17.5313 21.1437 17 20.0812 17C19.0187 17 17.9562 17.85 17.9562 19.4437V25.5H14.3438V14.1313H17.7437V15.725C18.0625 14.9813 19.3375 13.8125 21.1437 13.8125C23.1625 13.8125 25.2875 14.9812 25.2875 18.4875V25.5H25.5Z" fill="white"/>
</svg>
