<svg width="391" height="51" viewBox="0 0 391 51" fill="none" xmlns="http://www.w3.org/2000/svg">
<path d="M6.1926 42H1.14317L12.489 10.4719H17.9848L29.3307 42H24.2812L15.3678 16.1987H15.1215L6.1926 42ZM7.0393 29.6535H23.4191V33.6561H7.0393V29.6535ZM41.985 42.4618C40.0761 42.4618 38.3724 41.9743 36.874 40.9994C35.3859 40.0141 34.2159 38.6132 33.364 36.7966C32.5225 34.9698 32.1017 32.7786 32.1017 30.2231C32.1017 27.6676 32.5276 25.4816 33.3794 23.665C34.2415 21.8485 35.4218 20.4578 36.9202 19.4931C38.4186 18.5284 40.1171 18.046 42.0158 18.046C43.4834 18.046 44.6637 18.2923 45.5566 18.785C46.4597 19.2673 47.1576 19.8318 47.6502 20.4784C48.1531 21.1249 48.5431 21.6945 48.8202 22.1872H49.0973V10.4719H53.7003V42H49.2051V38.3207H48.8202C48.5431 38.8236 48.1428 39.3983 47.6194 40.0449C47.1063 40.6915 46.3981 41.2559 45.495 41.7383C44.5918 42.2207 43.4218 42.4618 41.985 42.4618ZM43.001 38.5362C44.325 38.5362 45.4437 38.1873 46.3571 37.4894C47.2807 36.7812 47.9786 35.8011 48.4507 34.549C48.9331 33.2969 49.1743 31.8396 49.1743 30.177C49.1743 28.5349 48.9382 27.098 48.4661 25.8665C47.994 24.6349 47.3013 23.6753 46.3879 22.9877C45.4744 22.3001 44.3455 21.9563 43.001 21.9563C41.6155 21.9563 40.4609 22.3155 39.5373 23.0339C38.6136 23.7523 37.9157 24.7324 37.4436 25.9742C36.9818 27.2161 36.7508 28.617 36.7508 30.177C36.7508 31.7575 36.9869 33.1789 37.459 34.4413C37.9311 35.7036 38.629 36.7043 39.5527 37.4432C40.4866 38.1719 41.6361 38.5362 43.001 38.5362ZM60.2699 42V18.3539H64.8729V42H60.2699ZM62.5945 14.7054C61.794 14.7054 61.1064 14.4386 60.5316 13.9049C59.9672 13.3609 59.6849 12.7144 59.6849 11.9652C59.6849 11.2057 59.9672 10.5591 60.5316 10.0254C61.1064 9.4815 61.794 9.20953 62.5945 9.20953C63.395 9.20953 64.0775 9.4815 64.642 10.0254C65.2167 10.5591 65.5041 11.2057 65.5041 11.9652C65.5041 12.7144 65.2167 13.3609 64.642 13.9049C64.0775 14.4386 63.395 14.7054 62.5945 14.7054ZM82.1033 18.3539V22.0486H69.1872V18.3539H82.1033ZM72.651 12.6887H77.254V35.057C77.254 35.9499 77.3874 36.6222 77.6543 37.0737C77.9211 37.515 78.2649 37.8178 78.6857 37.982C79.1167 38.136 79.5837 38.2129 80.0866 38.2129C80.4561 38.2129 80.7794 38.1873 81.0565 38.136C81.3336 38.0846 81.5491 38.0436 81.703 38.0128L82.5343 41.8153C82.2675 41.9179 81.8878 42.0205 81.3951 42.1232C80.9025 42.2361 80.2867 42.2976 79.5478 42.3079C78.3368 42.3284 77.2078 42.1129 76.161 41.6613C75.1142 41.2097 74.2675 40.5119 73.6209 39.5677C72.9743 38.6235 72.651 37.4381 72.651 36.0115V12.6887ZM92.3061 27.9601V42H87.7031V10.4719H92.2445V22.2026H92.537C93.0912 20.9299 93.9379 19.919 95.0771 19.1698C96.2163 18.4206 97.7044 18.046 99.5415 18.046C101.163 18.046 102.579 18.3796 103.79 19.0467C105.012 19.7138 105.956 20.7093 106.623 22.0332C107.3 23.3469 107.639 24.989 107.639 26.9595V42H103.036V27.5137C103.036 25.7792 102.59 24.4348 101.697 23.4803C100.804 22.5156 99.562 22.0332 97.9713 22.0332C96.8834 22.0332 95.9084 22.2641 95.0463 22.726C94.1945 23.1878 93.5222 23.8652 93.0296 24.7581C92.5472 25.6407 92.3061 26.708 92.3061 27.9601ZM115.844 50.8673C115.157 50.8673 114.531 50.8108 113.966 50.6979C113.402 50.5953 112.981 50.4824 112.704 50.3593L113.812 46.5876C114.654 46.8134 115.403 46.9109 116.06 46.8801C116.717 46.8493 117.297 46.603 117.799 46.1411C118.313 45.6793 118.764 44.925 119.154 43.8781L119.724 42.3079L111.072 18.3539H115.998L121.987 36.7043H122.233L128.222 18.3539H133.163L123.419 45.1559C122.967 46.3875 122.392 47.4292 121.694 48.281C120.996 49.1431 120.165 49.7897 119.2 50.2207C118.236 50.6518 117.117 50.8673 115.844 50.8673ZM143.693 42.5234C142.195 42.5234 140.84 42.2463 139.629 41.6921C138.418 41.1276 137.458 40.3117 136.75 39.2444C136.052 38.177 135.703 36.8685 135.703 35.3187C135.703 33.9846 135.96 32.8864 136.473 32.0243C136.986 31.1622 137.679 30.4797 138.551 29.9768C139.424 29.4739 140.399 29.0942 141.476 28.8376C142.554 28.5811 143.652 28.3861 144.771 28.2526C146.187 28.0884 147.337 27.955 148.219 27.8524C149.102 27.7395 149.743 27.5599 150.144 27.3136C150.544 27.0673 150.744 26.667 150.744 26.1128V26.005C150.744 24.6606 150.364 23.6189 149.605 22.8799C148.855 22.141 147.737 21.7715 146.249 21.7715C144.699 21.7715 143.478 22.1153 142.585 22.803C141.702 23.4803 141.091 24.2346 140.753 25.066L136.427 24.0807C136.94 22.6439 137.689 21.4841 138.675 20.6015C139.67 19.7086 140.814 19.0621 142.108 18.6618C143.401 18.2513 144.761 18.046 146.187 18.046C147.131 18.046 148.132 18.1589 149.189 18.3847C150.256 18.6002 151.252 19.0005 152.176 19.5855C153.11 20.1705 153.874 21.0069 154.469 22.0948C155.065 23.1724 155.362 24.5733 155.362 26.2975V42H150.867V38.7671H150.682C150.385 39.3624 149.938 39.9474 149.343 40.5221C148.748 41.0969 147.983 41.5741 147.049 41.9538C146.115 42.3335 144.997 42.5234 143.693 42.5234ZM144.694 38.8287C145.966 38.8287 147.054 38.5773 147.957 38.0744C148.871 37.5715 149.564 36.9147 150.036 36.1039C150.518 35.2828 150.759 34.4053 150.759 33.4714V30.4233C150.595 30.5875 150.277 30.7414 149.805 30.8851C149.343 31.0185 148.814 31.1366 148.219 31.2392C147.624 31.3316 147.044 31.4188 146.48 31.5009C145.915 31.5727 145.443 31.6343 145.063 31.6856C144.17 31.7985 143.354 31.9884 142.616 32.2552C141.887 32.5221 141.302 32.9069 140.861 33.4098C140.43 33.9024 140.214 34.5593 140.214 35.3803C140.214 36.5195 140.635 37.3816 141.476 37.9666C142.318 38.5413 143.39 38.8287 144.694 38.8287ZM165.45 10.4719V13.4276C165.45 14.3 165.285 15.2186 164.957 16.1833C164.639 17.1377 164.187 18.0563 163.602 18.9389C163.017 19.8215 162.33 20.581 161.539 21.2173L159.261 19.5855C159.866 18.7029 160.39 17.7638 160.831 16.7683C161.283 15.7728 161.509 14.6746 161.509 13.4738V10.4719H165.45ZM184.631 24.1269L180.459 24.8658C180.285 24.3321 180.008 23.8241 179.628 23.3418C179.259 22.8594 178.756 22.4643 178.119 22.1564C177.483 21.8485 176.688 21.6945 175.733 21.6945C174.43 21.6945 173.342 21.987 172.47 22.572C171.597 23.1468 171.161 23.8908 171.161 24.8042C171.161 25.5945 171.453 26.2308 172.038 26.7132C172.623 27.1955 173.568 27.5907 174.871 27.8986L178.627 28.7607C180.803 29.2635 182.425 30.0384 183.492 31.0852C184.559 32.1321 185.093 33.4919 185.093 35.1648C185.093 36.5811 184.683 37.8435 183.861 38.9519C183.051 40.05 181.917 40.9121 180.459 41.5382C179.012 42.1642 177.334 42.4772 175.425 42.4772C172.777 42.4772 170.617 41.9128 168.944 40.7838C167.271 39.6446 166.245 38.0282 165.865 35.9345L170.314 35.2572C170.591 36.4169 171.161 37.2944 172.023 37.8896C172.885 38.4746 174.009 38.7671 175.394 38.7671C176.903 38.7671 178.109 38.4541 179.012 37.8281C179.915 37.1918 180.367 36.4169 180.367 35.5035C180.367 34.7645 180.09 34.1436 179.536 33.6407C178.992 33.1379 178.155 32.7581 177.026 32.5015L173.024 31.624C170.817 31.1212 169.185 30.3206 168.128 29.2225C167.081 28.1243 166.558 26.7337 166.558 25.0506C166.558 23.6548 166.948 22.4335 167.728 21.3866C168.508 20.3398 169.586 19.5239 170.961 18.9389C172.336 18.3437 173.911 18.046 175.687 18.046C178.242 18.046 180.254 18.6002 181.722 19.7086C183.189 20.8068 184.159 22.2795 184.631 24.1269ZM199.845 42V10.4719H213.454C215.794 10.4719 217.841 10.9337 219.596 11.8574C221.351 12.7811 222.716 14.0794 223.691 15.7522C224.666 17.4251 225.154 19.3802 225.154 21.6176C225.154 23.8754 224.651 25.8306 223.645 27.4829C222.649 29.1353 221.249 30.4079 219.442 31.3008C217.646 32.1936 215.547 32.6401 213.146 32.6401H205.018V25.9896H211.422C212.427 25.9896 213.284 25.8152 213.993 25.4662C214.711 25.107 215.26 24.599 215.64 23.9422C216.03 23.2853 216.225 22.5105 216.225 21.6176C216.225 20.7144 216.03 19.9447 215.64 19.3084C215.26 18.6618 214.711 18.1692 213.993 17.8305C213.284 17.4816 212.427 17.3071 211.422 17.3071H208.404V42H199.845ZM239.301 42.431C236.735 42.431 234.539 41.923 232.712 40.907C230.886 39.8807 229.485 38.4541 228.51 36.6273C227.535 34.7902 227.047 32.6606 227.047 30.2385C227.047 27.8165 227.535 25.692 228.51 23.8652C229.485 22.0281 230.886 20.6015 232.712 19.5855C234.539 18.5592 236.735 18.046 239.301 18.046C241.867 18.046 244.063 18.5592 245.89 19.5855C247.717 20.6015 249.118 22.0281 250.093 23.8652C251.068 25.692 251.555 27.8165 251.555 30.2385C251.555 32.6606 251.068 34.7902 250.093 36.6273C249.118 38.4541 247.717 39.8807 245.89 40.907C244.063 41.923 241.867 42.431 239.301 42.431ZM239.363 36.1501C240.081 36.1501 240.702 35.9089 241.226 35.4265C241.749 34.9441 242.154 34.2565 242.442 33.3636C242.729 32.4708 242.873 31.4085 242.873 30.177C242.873 28.9351 242.729 27.8729 242.442 26.9903C242.154 26.0974 241.749 25.4098 241.226 24.9274C240.702 24.445 240.081 24.2039 239.363 24.2039C238.603 24.2039 237.952 24.445 237.408 24.9274C236.864 25.4098 236.448 26.0974 236.161 26.9903C235.873 27.8729 235.73 28.9351 235.73 30.177C235.73 31.4085 235.873 32.4708 236.161 33.3636C236.448 34.2565 236.864 34.9441 237.408 35.4265C237.952 35.9089 238.603 36.1501 239.363 36.1501ZM255.004 42V18.3539H263.255V22.8491H263.502C263.933 21.1865 264.615 19.9703 265.549 19.2006C266.493 18.4309 267.596 18.046 268.859 18.046C269.228 18.046 269.593 18.0768 269.952 18.1384C270.321 18.1897 270.675 18.2667 271.014 18.3693V25.6202C270.593 25.4765 270.075 25.3687 269.459 25.2969C268.843 25.225 268.315 25.1891 267.874 25.1891C267.042 25.1891 266.293 25.379 265.626 25.7587C264.969 26.1282 264.451 26.6516 264.071 27.329C263.691 27.9961 263.502 28.7812 263.502 29.6843V42H255.004ZM288.876 18.3539V24.5118H273.296V18.3539H288.876ZM276.314 12.6887H284.811V34.3951C284.811 34.7235 284.868 35.0006 284.981 35.2264C285.094 35.4419 285.268 35.6061 285.504 35.719C285.74 35.8216 286.043 35.873 286.413 35.873C286.669 35.873 286.967 35.8422 287.305 35.7806C287.654 35.719 287.911 35.6677 288.075 35.6266L289.307 41.5997C288.927 41.7126 288.383 41.8512 287.675 42.0154C286.977 42.1796 286.146 42.2874 285.181 42.3387C283.231 42.4413 281.594 42.2412 280.27 41.7383C278.946 41.2251 277.951 40.4195 277.284 39.3213C276.616 38.2232 276.293 36.8479 276.314 35.1956V12.6887ZM306.506 18.3539V24.5118H290.681V18.3539H306.506ZM293.698 42V17.6766C293.698 15.7266 294.047 14.1101 294.745 12.8273C295.443 11.5444 296.428 10.5848 297.701 9.94847C298.973 9.31216 300.472 8.99401 302.196 8.99401C303.273 8.99401 304.32 9.07611 305.336 9.24032C306.363 9.40453 307.122 9.54821 307.615 9.67137L306.383 15.7676C306.075 15.6753 305.716 15.6034 305.306 15.5521C304.895 15.4905 304.536 15.4597 304.228 15.4597C303.427 15.4597 302.889 15.6291 302.611 15.9678C302.334 16.3064 302.196 16.7529 302.196 17.3071V42H293.698ZM320.458 42.431C317.892 42.431 315.696 41.923 313.869 40.907C312.042 39.8807 310.641 38.4541 309.666 36.6273C308.691 34.7902 308.204 32.6606 308.204 30.2385C308.204 27.8165 308.691 25.692 309.666 23.8652C310.641 22.0281 312.042 20.6015 313.869 19.5855C315.696 18.5592 317.892 18.046 320.458 18.046C323.023 18.046 325.22 18.5592 327.047 19.5855C328.873 20.6015 330.274 22.0281 331.249 23.8652C332.224 25.692 332.712 27.8165 332.712 30.2385C332.712 32.6606 332.224 34.7902 331.249 36.6273C330.274 38.4541 328.873 39.8807 327.047 40.907C325.22 41.923 323.023 42.431 320.458 42.431ZM320.519 36.1501C321.238 36.1501 321.859 35.9089 322.382 35.4265C322.905 34.9441 323.311 34.2565 323.598 33.3636C323.885 32.4708 324.029 31.4085 324.029 30.177C324.029 28.9351 323.885 27.8729 323.598 26.9903C323.311 26.0974 322.905 25.4098 322.382 24.9274C321.859 24.445 321.238 24.2039 320.519 24.2039C319.76 24.2039 319.108 24.445 318.564 24.9274C318.02 25.4098 317.605 26.0974 317.317 26.9903C317.03 27.8729 316.886 28.9351 316.886 30.177C316.886 31.4085 317.03 32.4708 317.317 33.3636C317.605 34.2565 318.02 34.9441 318.564 35.4265C319.108 35.9089 319.76 36.1501 320.519 36.1501ZM344.658 10.4719V42H336.16V10.4719H344.658ZM348.988 42V18.3539H357.485V42H348.988ZM353.237 15.8908C352.087 15.8908 351.102 15.5111 350.281 14.7516C349.46 13.9921 349.049 13.0787 349.049 12.0113C349.049 10.944 349.46 10.0306 350.281 9.27111C351.102 8.51165 352.087 8.13191 353.237 8.13191C354.396 8.13191 355.382 8.51165 356.192 9.27111C357.013 10.0306 357.424 10.944 357.424 12.0113C357.424 13.0787 357.013 13.9921 356.192 14.7516C355.382 15.5111 354.396 15.8908 353.237 15.8908ZM373.207 42.431C370.641 42.431 368.445 41.923 366.618 40.907C364.791 39.8807 363.391 38.4541 362.416 36.6273C361.441 34.7902 360.953 32.6606 360.953 30.2385C360.953 27.8165 361.441 25.692 362.416 23.8652C363.391 22.0281 364.791 20.6015 366.618 19.5855C368.445 18.5592 370.641 18.046 373.207 18.046C375.773 18.046 377.969 18.5592 379.796 19.5855C381.623 20.6015 383.024 22.0281 383.999 23.8652C384.974 25.692 385.461 27.8165 385.461 30.2385C385.461 32.6606 384.974 34.7902 383.999 36.6273C383.024 38.4541 381.623 39.8807 379.796 40.907C377.969 41.923 375.773 42.431 373.207 42.431ZM373.269 36.1501C373.987 36.1501 374.608 35.9089 375.132 35.4265C375.655 34.9441 376.06 34.2565 376.348 33.3636C376.635 32.4708 376.779 31.4085 376.779 30.177C376.779 28.9351 376.635 27.8729 376.348 26.9903C376.06 26.0974 375.655 25.4098 375.132 24.9274C374.608 24.445 373.987 24.2039 373.269 24.2039C372.509 24.2039 371.858 24.445 371.314 24.9274C370.77 25.4098 370.354 26.0974 370.067 26.9903C369.779 27.8729 369.636 28.9351 369.636 30.177C369.636 31.4085 369.779 32.4708 370.067 33.3636C370.354 34.2565 370.77 34.9441 371.314 35.4265C371.858 35.9089 372.509 36.1501 373.269 36.1501Z" fill="#F4FCFB"/>
<circle cx="353.261" cy="11.8054" r="4.06417" fill="#79F38E"/>
</svg>
