<svg width="34" height="34" viewBox="0 0 34 34" fill="none" xmlns="http://www.w3.org/2000/svg">
<path d="M0 17C0 26.3888 7.61116 34 17 34C26.3888 34 34 26.3888 34 17C34 7.61116 26.3888 0 17 0C7.61116 0 0 7.61116 0 17Z" fill="#25D366"/>
<path fill-rule="evenodd" clip-rule="evenodd" d="M22.95 10.9438C21.3563 9.35 19.2313 8.5 17 8.5C12.325 8.5 8.5 12.325 8.5 17C8.5 18.4875 8.92501 19.975 9.66876 21.25L8.5 25.5L12.9625 24.3313C14.2375 24.9688 15.6188 25.3938 17 25.3938C21.675 25.3938 25.5 21.5688 25.5 16.8938C25.5 14.6625 24.5438 12.5375 22.95 10.9438ZM17 24.0125C15.725 24.0125 14.45 23.6938 13.3875 23.0563L13.175 22.95L10.5187 23.6938L11.2625 21.1438L11.05 20.825C10.3062 19.6563 9.98749 18.3813 9.98749 17.1063C9.98749 13.2813 13.175 10.0938 17 10.0938C18.9125 10.0938 20.6125 10.8375 21.9938 12.1125C23.375 13.4938 24.0125 15.1938 24.0125 17.1063C24.0125 20.825 20.9313 24.0125 17 24.0125ZM20.825 18.7C20.6125 18.5938 19.55 18.0625 19.3375 18.0625C19.125 17.9563 19.0187 17.9563 18.9125 18.1688C18.8062 18.3813 18.3813 18.8063 18.275 19.0188C18.1688 19.125 18.0625 19.125 17.85 19.125C17.6375 19.0188 17 18.8063 16.15 18.0625C15.5125 17.5313 15.0875 16.7875 14.9813 16.575C14.875 16.3625 14.9813 16.2563 15.0875 16.15C15.1938 16.0438 15.3 15.9375 15.4063 15.8313C15.5125 15.725 15.5125 15.6188 15.6188 15.5125C15.725 15.4063 15.6188 15.3 15.6188 15.1938C15.6188 15.0875 15.1938 14.025 14.9813 13.6C14.875 13.2813 14.6625 13.2813 14.5563 13.2813C14.45 13.2813 14.3437 13.2813 14.1312 13.2813C14.025 13.2813 13.8125 13.2813 13.6 13.4938C13.3875 13.7063 12.8563 14.2375 12.8563 15.3C12.8563 16.3625 13.6 17.3188 13.7062 17.5313C13.8125 17.6375 15.1937 19.8688 17.3187 20.7188C19.125 21.4625 19.4438 21.25 19.8688 21.25C20.2938 21.25 21.1438 20.7188 21.25 20.2938C21.4625 19.7625 21.4625 19.3375 21.3563 19.3375C21.25 18.8063 21.0375 18.8063 20.825 18.7Z" fill="white"/>
</svg>
