<svg width="16" height="16" viewBox="0 0 16 16" fill="none" xmlns="http://www.w3.org/2000/svg">
<path d="M4 10V3.66671C4 3.50957 4 3.43101 4.04882 3.38219C4.09763 3.33337 4.1762 3.33337 4.33333 3.33337H11.1953C11.5378 3.33337 11.709 3.33337 11.7516 3.43626C11.7942 3.53915 11.6731 3.66023 11.431 3.90241L8.85523 6.47815C8.76634 6.56703 8.7219 6.61148 8.7219 6.66671C8.7219 6.72194 8.76634 6.76638 8.85523 6.85527L11.431 9.43101C11.6731 9.67318 11.7942 9.79427 11.7516 9.89715C11.709 10 11.5378 10 11.1953 10H4ZM4 10V12.6667" stroke="#33363F" stroke-width="1.33333" stroke-linecap="round"/>
</svg>
