<svg width="34" height="34" viewBox="0 0 34 34" fill="none" xmlns="http://www.w3.org/2000/svg">
<path d="M0 17C0 26.3888 7.61116 34 17 34C26.3888 34 34 26.3888 34 17C34 7.61116 26.3888 0 17 0C7.61116 0 0 7.61116 0 17Z" fill="#231E1B"/>
<path fill-rule="evenodd" clip-rule="evenodd" d="M16.974 8.7041C12.2951 8.7041 8.5 12.4992 8.5 17.1781C8.5 20.9212 10.9434 24.0925 14.2706 25.2362C14.6865 25.2882 14.8425 25.0283 14.8425 24.8203C14.8425 24.6124 14.8425 24.0925 14.8425 23.3647C12.5031 23.8845 11.9832 22.2209 11.9832 22.2209C11.6193 21.2332 11.0474 20.9732 11.0474 20.9732C10.2676 20.4533 11.0994 20.4533 11.0994 20.4533C11.9312 20.5053 12.3991 21.3371 12.3991 21.3371C13.1789 22.6368 14.3746 22.2729 14.8425 22.065C14.8945 21.4931 15.1544 21.1292 15.3624 20.9212C13.4908 20.7133 11.5153 19.9854 11.5153 16.7102C11.5153 15.7744 11.8272 15.0466 12.3991 14.4228C12.3471 14.2668 12.0352 13.383 12.5031 12.2393C12.5031 12.2393 13.2309 12.0313 14.8425 13.1231C15.5183 12.9151 16.2462 12.8631 16.974 12.8631C17.7018 12.8631 18.4297 12.9671 19.1055 13.1231C20.7171 12.0313 21.445 12.2393 21.445 12.2393C21.9128 13.383 21.6009 14.2668 21.5489 14.4747C22.0688 15.0466 22.4327 15.8264 22.4327 16.7622C22.4327 20.0374 20.4572 20.7133 18.5856 20.9212C18.8976 21.1812 19.1575 21.701 19.1575 22.4809C19.1575 23.6246 19.1575 24.5084 19.1575 24.8203C19.1575 25.0283 19.3135 25.2882 19.7294 25.2362C23.1086 24.0925 25.5 20.9212 25.5 17.1781C25.448 12.4992 21.6529 8.7041 16.974 8.7041Z" fill="white"/>
</svg>
