<svg width="214" height="58" viewBox="0 0 214 58" fill="none" xmlns="http://www.w3.org/2000/svg">
<path d="M13.6461 56.5676V22.9165H28.1713C30.6688 22.9165 32.8542 23.4094 34.7274 24.3953C36.6005 25.3811 38.0574 26.7668 39.0981 28.5524C40.1387 30.3379 40.659 32.4246 40.659 34.8127C40.659 37.2226 40.1223 39.3093 39.0488 41.0729C37.9862 42.8366 36.491 44.1949 34.563 45.1479C32.6461 46.1009 30.4059 46.5774 27.8427 46.5774H19.167V39.4791H26.0024C27.0759 39.4791 27.9906 39.2929 28.7464 38.9205C29.5132 38.5371 30.0992 37.9948 30.5045 37.2938C30.9208 36.5927 31.1289 35.7657 31.1289 34.8127C31.1289 33.8487 30.9208 33.0271 30.5045 32.348C30.0992 31.6579 29.5132 31.1321 28.7464 30.7706C27.9906 30.3981 27.0759 30.2119 26.0024 30.2119H22.7819V56.5676H13.6461ZM55.7593 57.0276C53.0208 57.0276 50.6766 56.4854 48.7267 55.401C46.7769 54.3055 45.2817 52.7829 44.241 50.8331C43.2004 48.8723 42.6801 46.5993 42.6801 44.0141C42.6801 41.4289 43.2004 39.1614 44.241 37.2116C45.2817 35.2508 46.7769 33.7282 48.7267 32.6437C50.6766 31.5483 53.0208 31.0006 55.7593 31.0006C58.4978 31.0006 60.842 31.5483 62.7918 32.6437C64.7417 33.7282 66.2369 35.2508 67.2776 37.2116C68.3182 39.1614 68.8385 41.4289 68.8385 44.0141C68.8385 46.5993 68.3182 48.8723 67.2776 50.8331C66.2369 52.7829 64.7417 54.3055 62.7918 55.401C60.842 56.4854 58.4978 57.0276 55.7593 57.0276ZM55.825 50.3237C56.5918 50.3237 57.2545 50.0663 57.8132 49.5514C58.3719 49.0366 58.8045 48.3027 59.1113 47.3497C59.418 46.3967 59.5713 45.2629 59.5713 43.9484C59.5713 42.623 59.418 41.4892 59.1113 40.5471C58.8045 39.5941 58.3719 38.8602 57.8132 38.3454C57.2545 37.8305 56.5918 37.5731 55.825 37.5731C55.0144 37.5731 54.3188 37.8305 53.7383 38.3454C53.1577 38.8602 52.714 39.5941 52.4073 40.5471C52.1006 41.4892 51.9473 42.623 51.9473 43.9484C51.9473 45.2629 52.1006 46.3967 52.4073 47.3497C52.714 48.3027 53.1577 49.0366 53.7383 49.5514C54.3188 50.0663 55.0144 50.3237 55.825 50.3237ZM72.5191 56.5676V31.3292H81.3262V36.1271H81.5891C82.0492 34.3526 82.7777 33.0545 83.7745 32.233C84.7823 31.4114 85.9598 31.0006 87.3072 31.0006C87.7016 31.0006 88.0904 31.0335 88.4738 31.0992C88.8682 31.154 89.2461 31.2361 89.6076 31.3457V39.0848C89.1585 38.9314 88.6053 38.8164 87.948 38.7397C87.2908 38.663 86.7266 38.6247 86.2556 38.6247C85.3683 38.6247 84.5687 38.8273 83.8566 39.2326C83.1556 39.627 82.6024 40.1857 82.1971 40.9086C81.7918 41.6206 81.5891 42.4586 81.5891 43.4226V56.5676H72.5191ZM108.672 31.3292V37.9017H92.0435V31.3292H108.672ZM95.264 25.2826H104.334V48.4506C104.334 48.8011 104.394 49.0968 104.515 49.3378C104.635 49.5679 104.821 49.7431 105.073 49.8636C105.325 49.9732 105.649 50.0279 106.043 50.0279C106.317 50.0279 106.634 49.9951 106.996 49.9294C107.368 49.8636 107.642 49.8089 107.817 49.765L109.132 56.1404C108.727 56.2609 108.146 56.4087 107.39 56.584C106.645 56.7593 105.758 56.8743 104.728 56.9291C102.647 57.0386 100.9 56.825 99.4868 56.2882C98.0738 55.7405 97.0112 54.8806 96.2992 53.7085C95.5872 52.5364 95.2421 51.0686 95.264 49.305V25.2826ZM127.49 31.3292V37.9017H110.598V31.3292H127.49ZM113.819 56.5676V30.6063C113.819 28.525 114.191 26.7997 114.936 25.4304C115.681 24.0612 116.733 23.037 118.091 22.3578C119.449 21.6786 121.049 21.3391 122.889 21.3391C124.039 21.3391 125.156 21.4267 126.241 21.602C127.336 21.7772 128.147 21.9306 128.673 22.062L127.358 28.5688C127.03 28.4702 126.646 28.3935 126.208 28.3388C125.77 28.273 125.387 28.2402 125.058 28.2402C124.203 28.2402 123.628 28.4209 123.333 28.7824C123.037 29.1439 122.889 29.6204 122.889 30.2119V56.5676H113.819ZM142.38 57.0276C139.642 57.0276 137.298 56.4854 135.348 55.401C133.398 54.3055 131.903 52.7829 130.862 50.8331C129.822 48.8723 129.301 46.5993 129.301 44.0141C129.301 41.4289 129.822 39.1614 130.862 37.2116C131.903 35.2508 133.398 33.7282 135.348 32.6437C137.298 31.5483 139.642 31.0006 142.38 31.0006C145.119 31.0006 147.463 31.5483 149.413 32.6437C151.363 33.7282 152.858 35.2508 153.899 37.2116C154.939 39.1614 155.46 41.4289 155.46 44.0141C155.46 46.5993 154.939 48.8723 153.899 50.8331C152.858 52.7829 151.363 54.3055 149.413 55.401C147.463 56.4854 145.119 57.0276 142.38 57.0276ZM142.446 50.3237C143.213 50.3237 143.876 50.0663 144.434 49.5514C144.993 49.0366 145.426 48.3027 145.732 47.3497C146.039 46.3967 146.193 45.2629 146.193 43.9484C146.193 42.623 146.039 41.4892 145.732 40.5471C145.426 39.5941 144.993 38.8602 144.434 38.3454C143.876 37.8305 143.213 37.5731 142.446 37.5731C141.636 37.5731 140.94 37.8305 140.359 38.3454C139.779 38.8602 139.335 39.5941 139.029 40.5471C138.722 41.4892 138.568 42.623 138.568 43.9484C138.568 45.2629 138.722 46.3967 139.029 47.3497C139.335 48.3027 139.779 49.0366 140.359 49.5514C140.94 50.0663 141.636 50.3237 142.446 50.3237ZM168.21 22.9165V56.5676H159.14V22.9165H168.21ZM172.832 56.5676V31.3292H181.902V56.5676H172.832ZM177.367 28.7002C176.14 28.7002 175.088 28.2949 174.212 27.4843C173.336 26.6737 172.897 25.6988 172.897 24.5596C172.897 23.4203 173.336 22.4454 174.212 21.6348C175.088 20.8242 176.14 20.4189 177.367 20.4189C178.604 20.4189 179.656 20.8242 180.521 21.6348C181.398 22.4454 181.836 23.4203 181.836 24.5596C181.836 25.6988 181.398 26.6737 180.521 27.4843C179.656 28.2949 178.604 28.7002 177.367 28.7002ZM198.682 57.0276C195.943 57.0276 193.599 56.4854 191.649 55.401C189.7 54.3055 188.204 52.7829 187.164 50.8331C186.123 48.8723 185.603 46.5993 185.603 44.0141C185.603 41.4289 186.123 39.1614 187.164 37.2116C188.204 35.2508 189.7 33.7282 191.649 32.6437C193.599 31.5483 195.943 31.0006 198.682 31.0006C201.421 31.0006 203.765 31.5483 205.715 32.6437C207.664 33.7282 209.16 35.2508 210.2 37.2116C211.241 39.1614 211.761 41.4289 211.761 44.0141C211.761 46.5993 211.241 48.8723 210.2 50.8331C209.16 52.7829 207.664 54.3055 205.715 55.401C203.765 56.4854 201.421 57.0276 198.682 57.0276ZM198.748 50.3237C199.515 50.3237 200.177 50.0663 200.736 49.5514C201.295 49.0366 201.727 48.3027 202.034 47.3497C202.341 46.3967 202.494 45.2629 202.494 43.9484C202.494 42.623 202.341 41.4892 202.034 40.5471C201.727 39.5941 201.295 38.8602 200.736 38.3454C200.177 37.8305 199.515 37.5731 198.748 37.5731C197.937 37.5731 197.242 37.8305 196.661 38.3454C196.08 38.8602 195.637 39.5941 195.33 40.5471C195.023 41.4892 194.87 42.623 194.87 43.9484C194.87 45.2629 195.023 46.3967 195.33 47.3497C195.637 48.3027 196.08 49.0366 196.661 49.5514C197.242 50.0663 197.937 50.3237 198.748 50.3237Z" fill="#F4FCFB"/>
<ellipse cx="177.907" cy="24.5644" rx="5.42178" ry="5.27017" fill="#79F38E"/>
<path d="M15.3281 14H13.5908L17.4944 3.15276H19.3852L23.2888 14H21.5515L18.4848 5.12306H18.4001L15.3281 14ZM15.6194 9.7522H21.2549V11.1293H15.6194V9.7522ZM27.6425 14.1589C26.9857 14.1589 26.3996 13.9912 25.884 13.6557C25.372 13.3168 24.9695 12.8348 24.6764 12.2098C24.3869 11.5813 24.2421 10.8274 24.2421 9.94817C24.2421 9.06895 24.3887 8.31685 24.6817 7.69186C24.9783 7.06687 25.3844 6.58842 25.8999 6.25651C26.4155 5.92459 26.9998 5.75864 27.6531 5.75864C28.158 5.75864 28.5641 5.84338 28.8713 6.01287C29.182 6.17883 29.4221 6.37303 29.5916 6.59548C29.7646 6.81794 29.8988 7.01391 29.9941 7.1834H30.0895V3.15276H31.6731V14H30.1265V12.7341H29.9941C29.8988 12.9072 29.7611 13.1049 29.581 13.3273C29.4044 13.5498 29.1608 13.744 28.8501 13.91C28.5394 14.0759 28.1368 14.1589 27.6425 14.1589ZM27.992 12.8083C28.4475 12.8083 28.8324 12.6882 29.1467 12.4481C29.4645 12.2045 29.7046 11.8673 29.867 11.4365C30.033 11.0057 30.1159 10.5043 30.1159 9.93228C30.1159 9.36732 30.0347 8.87298 29.8723 8.44926C29.7099 8.02554 29.4715 7.69539 29.1573 7.45882C28.843 7.22224 28.4546 7.10395 27.992 7.10395C27.5154 7.10395 27.1181 7.22753 26.8003 7.47471C26.4825 7.72188 26.2424 8.05909 26.08 8.48634C25.9211 8.91359 25.8417 9.39557 25.8417 9.93228C25.8417 10.4761 25.9229 10.9651 26.0853 11.3994C26.2477 11.8337 26.4878 12.178 26.8056 12.4322C27.127 12.6829 27.5224 12.8083 27.992 12.8083ZM33.9334 14V5.86457H35.5171V14H33.9334ZM34.7332 4.6093C34.4578 4.6093 34.2212 4.51749 34.0234 4.33388C33.8292 4.14673 33.7321 3.92428 33.7321 3.66652C33.7321 3.40522 33.8292 3.18277 34.0234 2.99916C34.2212 2.81201 34.4578 2.71844 34.7332 2.71844C35.0086 2.71844 35.2434 2.81201 35.4376 2.99916C35.6353 3.18277 35.7342 3.40522 35.7342 3.66652C35.7342 3.92428 35.6353 4.14673 35.4376 4.33388C35.2434 4.51749 35.0086 4.6093 34.7332 4.6093ZM41.4452 5.86457V7.13573H37.0014V5.86457H41.4452ZM38.1931 3.91545H39.7768V11.6113C39.7768 11.9185 39.8227 12.1498 39.9145 12.3051C40.0063 12.457 40.1246 12.5611 40.2693 12.6176C40.4176 12.6706 40.5783 12.6971 40.7513 12.6971C40.8784 12.6971 40.9897 12.6882 41.085 12.6706C41.1803 12.6529 41.2545 12.6388 41.3075 12.6282L41.5935 13.9364C41.5017 13.9718 41.371 14.0071 41.2015 14.0424C41.032 14.0812 40.8202 14.1024 40.566 14.1059C40.1493 14.113 39.7609 14.0388 39.4007 13.8835C39.0406 13.7281 38.7493 13.488 38.5268 13.1632C38.3043 12.8383 38.1931 12.4305 38.1931 11.9397V3.91545ZM44.9554 9.16959V14H43.3718V3.15276H44.9342V7.18869H45.0349C45.2256 6.75085 45.5169 6.40304 45.9088 6.14528C46.3007 5.88752 46.8127 5.75864 47.4448 5.75864C48.0027 5.75864 48.49 5.87339 48.9066 6.10291C49.3268 6.33243 49.6517 6.67493 49.8812 7.13043C50.1142 7.5824 50.2308 8.14736 50.2308 8.82531V14H48.6471V9.01599C48.6471 8.41925 48.4935 7.95669 48.1863 7.6283C47.8791 7.29639 47.4519 7.13043 46.9045 7.13043C46.5303 7.13043 46.1948 7.20988 45.8982 7.36877C45.6051 7.52767 45.3739 7.76072 45.2044 8.06791C45.0384 8.37158 44.9554 8.7388 44.9554 9.16959ZM53.0538 17.0508C52.8172 17.0508 52.6018 17.0314 52.4076 16.9925C52.2134 16.9572 52.0686 16.9184 51.9733 16.876L52.3547 15.5784C52.6442 15.656 52.902 15.6896 53.1279 15.679C53.3539 15.6684 53.5534 15.5837 53.7264 15.4248C53.903 15.2659 54.0584 15.0063 54.1925 14.6462L54.3885 14.1059L51.4119 5.86457H53.1068L55.1671 12.178H55.2518L57.3122 5.86457H59.0124L55.6597 15.0858C55.5043 15.5095 55.3066 15.8679 55.0665 16.161C54.8264 16.4576 54.5403 16.68 54.2084 16.8283C53.8765 16.9766 53.4916 17.0508 53.0538 17.0508ZM62.6352 14.1801C62.1196 14.1801 61.6535 14.0847 61.2369 13.8941C60.8202 13.6999 60.4901 13.4191 60.2464 13.0519C60.0063 12.6847 59.8863 12.2345 59.8863 11.7013C59.8863 11.2423 59.9746 10.8645 60.1511 10.5679C60.3277 10.2713 60.566 10.0364 60.8661 9.86343C61.1663 9.69041 61.5017 9.55976 61.8725 9.47149C62.2432 9.38321 62.621 9.31612 63.0059 9.27022C63.4932 9.21372 63.8887 9.16782 64.1923 9.13251C64.496 9.09367 64.7167 9.03188 64.8544 8.94713C64.9921 8.86239 65.061 8.72468 65.061 8.53401V8.49693C65.061 8.03437 64.9303 7.67597 64.669 7.42174C64.4113 7.16751 64.0264 7.04039 63.5144 7.04039C62.9812 7.04039 62.561 7.15868 62.2538 7.39526C61.9502 7.6283 61.7401 7.88783 61.6235 8.17384L60.1352 7.83487C60.3118 7.34053 60.5695 6.94152 60.9085 6.63786C61.251 6.33066 61.6447 6.10821 62.0896 5.9705C62.5345 5.82926 63.0024 5.75864 63.4932 5.75864C63.8181 5.75864 64.1623 5.79748 64.526 5.87516C64.8932 5.94931 65.2357 6.08702 65.5535 6.28829C65.8749 6.48955 66.1379 6.77733 66.3427 7.15162C66.5475 7.52237 66.6499 8.00436 66.6499 8.59756V14H65.1033V12.8877H65.0398C64.9374 13.0925 64.7838 13.2938 64.579 13.4915C64.3742 13.6893 64.1111 13.8535 63.7898 13.9841C63.4685 14.1148 63.0836 14.1801 62.6352 14.1801ZM62.9794 12.9089C63.4173 12.9089 63.7916 12.8224 64.1023 12.6494C64.4166 12.4764 64.6549 12.2504 64.8173 11.9714C64.9833 11.689 65.0663 11.3871 65.0663 11.0657V10.017C65.0098 10.0735 64.9003 10.1265 64.7379 10.1759C64.579 10.2218 64.3971 10.2624 64.1923 10.2977C63.9875 10.3295 63.788 10.3595 63.5938 10.3878C63.3996 10.4125 63.2372 10.4337 63.1066 10.4513C62.7994 10.4902 62.5186 10.5555 62.2644 10.6473C62.0137 10.7391 61.8124 10.8715 61.6606 11.0445C61.5123 11.214 61.4382 11.44 61.4382 11.7225C61.4382 12.1144 61.5829 12.411 61.8725 12.6123C62.162 12.8101 62.531 12.9089 62.9794 12.9089ZM70.1205 3.15276V4.16969C70.1205 4.46982 70.064 4.78585 69.951 5.11776C69.8415 5.44614 69.6861 5.76217 69.4849 6.06583C69.2836 6.3695 69.047 6.63079 68.7751 6.84972L67.9913 6.28829C68.1996 5.98462 68.3797 5.66153 68.5315 5.31903C68.6869 4.97652 68.7645 4.5987 68.7645 4.18558V3.15276H70.1205ZM76.7199 7.85076L75.2845 8.10499C75.2245 7.92138 75.1292 7.74659 74.9985 7.58063C74.8714 7.41468 74.6984 7.27873 74.4795 7.1728C74.2606 7.06687 73.9869 7.01391 73.6585 7.01391C73.2101 7.01391 72.8358 7.11454 72.5357 7.31581C72.2355 7.51355 72.0855 7.76954 72.0855 8.0838C72.0855 8.35569 72.1861 8.57461 72.3874 8.74057C72.5886 8.90653 72.9135 9.04247 73.3619 9.1484L74.6543 9.445C75.4028 9.61802 75.9607 9.88462 76.328 10.2448C76.6952 10.6049 76.8788 11.0728 76.8788 11.6484C76.8788 12.1356 76.7376 12.5699 76.4551 12.9513C76.1761 13.3291 75.786 13.6257 75.2845 13.8411C74.7867 14.0565 74.2094 14.1642 73.5526 14.1642C72.6416 14.1642 71.8983 13.97 71.3228 13.5816C70.7472 13.1896 70.3941 12.6335 70.2635 11.9132L71.7942 11.6801C71.8895 12.0791 72.0855 12.381 72.3821 12.5858C72.6787 12.7871 73.0653 12.8877 73.542 12.8877C74.0611 12.8877 74.4759 12.78 74.7867 12.5646C75.0974 12.3457 75.2528 12.0791 75.2528 11.7649C75.2528 11.5106 75.1574 11.297 74.9668 11.124C74.7796 10.951 74.4918 10.8203 74.1034 10.7321L72.7263 10.4302C71.9672 10.2571 71.4057 9.98172 71.042 9.6039C70.6819 9.22608 70.5018 8.74763 70.5018 8.16855C70.5018 7.68833 70.636 7.26814 70.9043 6.90798C71.1727 6.54782 71.5434 6.2671 72.0166 6.06583C72.4898 5.86104 73.0318 5.75864 73.6426 5.75864C74.5219 5.75864 75.2139 5.94931 75.7189 6.33066C76.2238 6.70848 76.5575 7.21518 76.7199 7.85076Z" fill="#F4FCFB"/>
</svg>
