<svg width="385" height="46" viewBox="0 0 385 46" fill="none" xmlns="http://www.w3.org/2000/svg">
<path fill-rule="evenodd" clip-rule="evenodd" d="M348.001 7.38806C348.046 5.56824 349.171 4.0163 350.759 3.34924C350.192 3.53608 349.678 3.84333 349.215 4.27105C348.394 5.03052 347.984 5.94393 347.984 7.01129C347.984 7.13911 347.99 7.26465 348.001 7.38806ZM0.0776367 36.9999H5.12706L8.01456 28.6561H20.3332L23.2157 36.9999H28.2651L16.9193 5.47183H11.4234L0.0776367 36.9999ZM18.9504 24.6535L14.3022 11.1986H14.0559L9.3997 24.6535H18.9504ZM35.8085 35.9993C37.3069 36.9743 39.0105 37.4618 40.9195 37.4618C42.3563 37.4618 43.5263 37.2206 44.4294 36.7382C45.3326 36.2559 46.0407 35.6914 46.5539 35.0448C47.0773 34.3983 47.4776 33.8235 47.7547 33.3206H48.1395V36.9999H52.6348V5.47183H48.0318V17.1871H47.7547C47.4776 16.6945 47.0876 16.1249 46.5847 15.4783C46.0921 14.8317 45.3942 14.2673 44.491 13.7849C43.5981 13.2923 42.4179 13.046 40.9503 13.046C39.0516 13.046 37.3531 13.5283 35.8547 14.4931C34.3562 15.4578 33.176 16.8484 32.3139 18.665C31.4621 20.4816 31.0361 22.6676 31.0361 25.2231C31.0361 27.7786 31.4569 29.9697 32.2985 31.7966C33.1503 33.6131 34.3203 35.014 35.8085 35.9993ZM45.2915 32.4893C44.3781 33.1872 43.2594 33.5362 41.9355 33.5362C40.5705 33.5362 39.4211 33.1718 38.4871 32.4431C37.5635 31.7042 36.8656 30.7036 36.3935 29.4412C35.9214 28.1788 35.6853 26.7574 35.6853 25.1769C35.6853 23.6169 35.9162 22.216 36.3781 20.9742C36.8502 19.7323 37.5481 18.7522 38.4717 18.0338C39.3954 17.3154 40.55 16.9562 41.9355 16.9562C43.28 16.9562 44.4089 17.3 45.3223 17.9876C46.2357 18.6753 46.9285 19.6348 47.4006 20.8664C47.8727 22.098 48.1087 23.5348 48.1087 25.1769C48.1087 26.8395 47.8676 28.2969 47.3852 29.549C46.9131 30.8011 46.2152 31.7812 45.2915 32.4893ZM63.8074 13.3539H59.2044V36.9999H63.8074V13.3539ZM59.4661 8.90482C60.0408 9.4385 60.7285 9.70534 61.529 9.70534C62.3295 9.70534 63.012 9.4385 63.5765 8.90482C64.1512 8.36088 64.4385 7.71431 64.4385 6.9651C64.4385 6.20564 64.1512 5.55907 63.5765 5.02539C63.012 4.48145 62.3295 4.20947 61.529 4.20947C60.7285 4.20947 60.0408 4.48145 59.4661 5.02539C58.9016 5.55907 58.6194 6.20564 58.6194 6.9651C58.6194 7.71431 58.9016 8.36088 59.4661 8.90482ZM81.0378 17.0486V13.3539H76.1885V7.68865H71.5855V13.3539H68.1217V17.0486H71.5855V31.0114C71.5855 32.438 71.9088 33.6234 72.5553 34.5676C73.2019 35.5118 74.0486 36.2097 75.0955 36.6613C76.1423 37.1128 77.2712 37.3284 78.4823 37.3078C79.2212 37.2976 79.837 37.236 80.3296 37.1231C80.8222 37.0205 81.202 36.9178 81.4688 36.8152L80.6375 33.0127C80.4836 33.0435 80.268 33.0846 79.9909 33.1359C79.7138 33.1872 79.3905 33.2129 79.0211 33.2129C78.5182 33.2129 78.0512 33.1359 77.6202 32.982C77.1994 32.8177 76.8556 32.515 76.5887 32.0737C76.3219 31.6221 76.1885 30.9499 76.1885 30.057V17.0486H81.0378ZM91.2405 36.9999V22.9601C91.2405 21.708 91.4817 20.6406 91.9641 19.758C92.4567 18.8651 93.1289 18.1878 93.9808 17.7259C94.8429 17.2641 95.8178 17.0332 96.9057 17.0332C98.4965 17.0332 99.7383 17.5155 100.631 18.4803C101.524 19.4347 101.971 20.7792 101.971 22.5136V36.9999H106.574V21.9594C106.574 19.9889 106.235 18.3468 105.557 17.0332C104.89 15.7092 103.946 14.7137 102.725 14.0466C101.514 13.3795 100.098 13.046 98.476 13.046C96.6389 13.046 95.1507 13.4206 94.0115 14.1698C92.8723 14.919 92.0256 15.9299 91.4714 17.2025H91.1789V5.47183H86.6375V36.9999H91.2405ZM112.901 45.6979C113.465 45.8108 114.091 45.8672 114.779 45.8672C116.051 45.8672 117.17 45.6517 118.135 45.2206C119.1 44.7896 119.931 44.143 120.629 43.2809C121.327 42.4291 121.901 41.3874 122.353 40.1558L132.098 13.3539H127.156L121.168 31.7042H120.921L114.933 13.3539H110.007L118.658 37.3078L118.089 38.8781C117.699 39.9249 117.247 40.6792 116.734 41.1411C116.231 41.6029 115.651 41.8492 114.994 41.88C114.338 41.9108 113.588 41.8133 112.747 41.5875L111.638 45.3592C111.915 45.4824 112.336 45.5953 112.901 45.6979ZM138.563 36.692C139.775 37.2463 141.129 37.5234 142.628 37.5234C143.931 37.5234 145.05 37.3335 145.984 36.9538C146.918 36.574 147.682 36.0968 148.277 35.5221C148.873 34.9473 149.319 34.3623 149.617 33.7671H149.802V36.9999H154.297V21.2975C154.297 19.5733 153.999 18.1724 153.404 17.0947C152.809 16.0069 152.044 15.1704 151.11 14.5854C150.186 14.0004 149.191 13.6002 148.124 13.3846C147.066 13.1589 146.066 13.046 145.122 13.046C143.695 13.046 142.335 13.2512 141.042 13.6617C139.749 14.062 138.605 14.7086 137.609 15.6015C136.624 16.4841 135.875 17.6438 135.361 19.0806L139.687 20.0659C140.026 19.2346 140.637 18.4803 141.519 17.8029C142.412 17.1153 143.633 16.7715 145.183 16.7715C146.671 16.7715 147.79 17.1409 148.539 17.8799C149.299 18.6188 149.678 19.6605 149.678 21.005V21.1127C149.678 21.6669 149.478 22.0672 149.078 22.3135C148.678 22.5598 148.036 22.7394 147.154 22.8523C146.271 22.9549 145.122 23.0884 143.705 23.2526C142.587 23.386 141.488 23.581 140.411 23.8376C139.333 24.0941 138.358 24.4739 137.486 24.9768C136.613 25.4797 135.921 26.1622 135.408 27.0243C134.894 27.8863 134.638 28.9845 134.638 30.3187C134.638 31.8684 134.987 33.177 135.685 34.2443C136.393 35.3117 137.352 36.1276 138.563 36.692ZM146.892 33.0743C145.989 33.5772 144.901 33.8287 143.628 33.8287C142.325 33.8287 141.252 33.5413 140.411 32.9666C139.569 32.3816 139.148 31.5195 139.148 30.3803C139.148 29.5592 139.364 28.9024 139.795 28.4098C140.236 27.9069 140.821 27.522 141.55 27.2552C142.289 26.9883 143.105 26.7985 143.998 26.6856C144.377 26.6343 144.85 26.5727 145.414 26.5008C145.979 26.4187 146.558 26.3315 147.154 26.2391C147.749 26.1365 148.277 26.0185 148.739 25.8851C149.211 25.7414 149.53 25.5874 149.694 25.4232V28.4713C149.694 29.4053 149.453 30.2828 148.97 31.1038C148.498 31.9146 147.805 32.5714 146.892 33.0743ZM164.384 8.42759V5.47183H160.443V8.47378C160.443 9.67455 160.217 10.7727 159.766 11.7682C159.324 12.7637 158.801 13.7028 158.195 14.5854L160.474 16.2173C161.264 15.5809 161.952 14.8215 162.537 13.9389C163.122 13.0562 163.573 12.1377 163.891 11.1832C164.22 10.2185 164.384 9.29995 164.384 8.42759ZM179.394 19.8658L183.566 19.1268C183.094 17.2795 182.124 15.8067 180.656 14.7086C179.188 13.6002 177.177 13.046 174.621 13.046C172.846 13.046 171.271 13.3436 169.895 13.9389C168.52 14.5238 167.442 15.3398 166.662 16.3866C165.882 17.4334 165.492 18.6547 165.492 20.0505C165.492 21.7336 166.016 23.1243 167.063 24.2224C168.12 25.3206 169.752 26.1211 171.958 26.624L175.961 27.5015C177.09 27.7581 177.926 28.1378 178.47 28.6407C179.024 29.1436 179.301 29.7645 179.301 30.5034C179.301 31.4168 178.85 32.1917 177.947 32.828C177.044 33.4541 175.838 33.7671 174.329 33.7671C172.943 33.7671 171.82 33.4746 170.958 32.8896C170.095 32.2943 169.526 31.4168 169.249 30.2571L164.8 30.9345C165.179 33.0281 166.206 34.6446 167.879 35.7838C169.551 36.9127 171.712 37.4772 174.36 37.4772C176.269 37.4772 177.947 37.1641 179.394 36.5381C180.851 35.9121 181.985 35.05 182.796 33.9518C183.617 32.8434 184.028 31.581 184.028 30.1647C184.028 28.4919 183.494 27.132 182.426 26.0852C181.359 25.0383 179.738 24.2635 177.562 23.7606L173.806 22.8985C172.502 22.5906 171.558 22.1955 170.973 21.7131C170.388 21.2308 170.095 20.5944 170.095 19.8042C170.095 18.8908 170.532 18.1467 171.404 17.572C172.276 16.987 173.364 16.6945 174.668 16.6945C175.622 16.6945 176.417 16.8484 177.054 17.1563C177.69 17.4642 178.193 17.8593 178.562 18.3417C178.942 18.8241 179.219 19.3321 179.394 19.8658ZM198.779 5.47183V36.9999H207.339V27.64H212.08C214.482 27.64 216.581 27.1936 218.377 26.3007C220.183 25.4078 221.584 24.1352 222.579 22.4828C223.585 20.8305 224.088 18.8754 224.088 16.6175C224.088 14.3802 223.601 12.4251 222.626 10.7522C221.651 9.07929 220.286 7.78102 218.531 6.85734C216.776 5.93367 214.728 5.47183 212.388 5.47183H198.779ZM207.339 20.9896H210.356C211.362 20.9896 212.219 20.8151 212.927 20.4662C213.645 20.1069 214.194 19.5989 214.574 18.9421C214.964 18.2853 215.159 17.5104 215.159 16.6175C215.159 15.7144 214.964 14.9446 214.574 14.3083C214.194 13.6618 213.645 13.1691 212.927 12.8304C212.219 12.4815 211.362 12.307 210.356 12.307H207.339V20.9896ZM227.444 31.6272C228.419 33.4541 229.82 34.8806 231.647 35.9069C233.474 36.923 235.67 37.431 238.236 37.431C240.801 37.431 242.998 36.923 244.825 35.9069C246.651 34.8806 248.052 33.4541 249.027 31.6272C250.002 29.7901 250.49 27.6606 250.49 25.2385C250.49 22.8164 250.002 20.6919 249.027 18.8651C248.052 17.028 246.651 15.6015 244.825 14.5854C242.998 13.5591 240.801 13.046 238.236 13.046C235.67 13.046 233.474 13.5591 231.647 14.5854C229.82 15.6015 228.419 17.028 227.444 18.8651C226.469 20.6919 225.982 22.8164 225.982 25.2385C225.982 27.6606 226.469 29.7901 227.444 31.6272ZM240.16 30.4265C239.637 30.9088 239.016 31.15 238.297 31.15C237.538 31.15 236.886 30.9088 236.342 30.4265C235.798 29.9441 235.383 29.2565 235.095 28.3636C234.808 27.4707 234.664 26.4085 234.664 25.1769C234.664 23.9351 234.808 22.8728 235.095 21.9902C235.383 21.0973 235.798 20.4097 236.342 19.9273C236.886 19.445 237.538 19.2038 238.297 19.2038C239.016 19.2038 239.637 19.445 240.16 19.9273C240.683 20.4097 241.089 21.0973 241.376 21.9902C241.664 22.8728 241.807 23.9351 241.807 25.1769C241.807 26.4085 241.664 27.4707 241.376 28.3636C241.089 29.2565 240.683 29.9441 240.16 30.4265ZM262.19 13.3539H253.938V36.9999H262.436V24.6843C262.436 23.7811 262.626 22.996 263.006 22.3289C263.385 21.6515 263.904 21.1281 264.56 20.7587C265.228 20.3789 265.977 20.1891 266.808 20.1891C267.249 20.1891 267.778 20.225 268.394 20.2968C269.009 20.3687 269.528 20.4764 269.949 20.6201V13.3693C269.61 13.2666 269.256 13.1897 268.886 13.1383C268.527 13.0768 268.163 13.046 267.793 13.046C266.531 13.046 265.428 13.4308 264.483 14.2006C263.55 14.9703 262.867 16.1865 262.436 17.8491H262.19V13.3539ZM287.81 19.5117V13.3539H283.746V7.68865H275.248V13.3539H272.231V19.5117H275.248V30.1955C275.228 31.8479 275.551 33.2231 276.218 34.3213C276.885 35.4194 277.881 36.2251 279.205 36.7382C280.528 37.2411 282.165 37.4413 284.115 37.3386C285.08 37.2873 285.911 37.1795 286.609 37.0153C287.318 36.8511 287.861 36.7126 288.241 36.5997L287.01 30.6266C286.845 30.6676 286.589 30.719 286.24 30.7805C285.901 30.8421 285.604 30.8729 285.347 30.8729C284.978 30.8729 284.675 30.8216 284.439 30.719C284.203 30.6061 284.028 30.4418 283.915 30.2263C283.802 30.0005 283.746 29.7234 283.746 29.395V19.5117H287.81ZM305.441 19.5117V13.3539H301.13V12.307C301.13 11.7528 301.269 11.3064 301.546 10.9677C301.823 10.629 302.362 10.4597 303.162 10.4597C303.47 10.4597 303.829 10.4905 304.24 10.552C304.651 10.6034 305.01 10.6752 305.318 10.7676L306.549 4.67131C306.057 4.54816 305.297 4.40447 304.271 4.24027C303.255 4.07605 302.208 3.99395 301.13 3.99395C299.406 3.99395 297.908 4.3121 296.635 4.94841C295.362 5.58472 294.377 6.54432 293.679 7.8272C292.981 9.11008 292.632 10.7265 292.632 12.6765V13.3539H289.615V19.5117H292.632V36.9999H301.13V19.5117H305.441ZM312.803 35.9069C314.63 36.923 316.826 37.431 319.392 37.431C321.958 37.431 324.154 36.923 325.981 35.9069C327.808 34.8806 329.209 33.4541 330.184 31.6272C331.159 29.7901 331.646 27.6606 331.646 25.2385C331.646 22.8164 331.159 20.6919 330.184 18.8651C329.209 17.028 327.808 15.6015 325.981 14.5854C324.154 13.5591 321.958 13.046 319.392 13.046C316.826 13.046 314.63 13.5591 312.803 14.5854C310.976 15.6015 309.575 17.028 308.601 18.8651C307.626 20.6919 307.138 22.8164 307.138 25.2385C307.138 27.6606 307.626 29.7901 308.601 31.6272C309.575 33.4541 310.976 34.8806 312.803 35.9069ZM321.316 30.4265C320.793 30.9088 320.172 31.15 319.454 31.15C318.694 31.15 318.042 30.9088 317.499 30.4265C316.955 29.9441 316.539 29.2565 316.252 28.3636C315.964 27.4707 315.821 26.4085 315.821 25.1769C315.821 23.9351 315.964 22.8728 316.252 21.9902C316.539 21.0973 316.955 20.4097 317.499 19.9273C318.042 19.445 318.694 19.2038 319.454 19.2038C320.172 19.2038 320.793 19.445 321.316 19.9273C321.84 20.4097 322.245 21.0973 322.533 21.9902C322.82 22.8728 322.964 23.9351 322.964 25.1769C322.964 26.4085 322.82 27.4707 322.533 28.3636C322.245 29.2565 321.84 29.9441 321.316 30.4265ZM343.592 36.9999V5.47183H335.095V36.9999H343.592ZM365.553 35.9069C367.38 36.923 369.576 37.431 372.142 37.431C374.707 37.431 376.904 36.923 378.731 35.9069C380.557 34.8806 381.958 33.4541 382.933 31.6272C383.908 29.7901 384.396 27.6606 384.396 25.2385C384.396 22.8164 383.908 20.6919 382.933 18.8651C381.958 17.028 380.557 15.6015 378.731 14.5854C376.904 13.5591 374.707 13.046 372.142 13.046C369.576 13.046 367.38 13.5591 365.553 14.5854C363.726 15.6015 362.325 17.028 361.35 18.8651C360.375 20.6919 359.888 22.8164 359.888 25.2385C359.888 27.6606 360.375 29.7901 361.35 31.6272C362.325 33.4541 363.726 34.8806 365.553 35.9069ZM374.066 30.4265C373.543 30.9088 372.922 31.15 372.203 31.15C371.444 31.15 370.792 30.9088 370.248 30.4265C369.704 29.9441 369.288 29.2565 369.001 28.3636C368.714 27.4707 368.57 26.4085 368.57 25.1769C368.57 23.9351 368.714 22.8728 369.001 21.9902C369.288 21.0973 369.704 20.4097 370.248 19.9273C370.792 19.445 371.444 19.2038 372.203 19.2038C372.922 19.2038 373.543 19.445 374.066 19.9273C374.589 20.4097 374.995 21.0973 375.282 21.9902C375.57 22.8728 375.713 23.9351 375.713 25.1769C375.713 26.4085 375.57 27.4707 375.282 28.3636C374.995 29.2565 374.589 29.9441 374.066 30.4265ZM347.922 13.3539V36.9999H356.42V13.3539H347.922Z" fill="#F4FCFB"/>
<path fill-rule="evenodd" clip-rule="evenodd" d="M349.182 3.18195C348.776 3.58749 348.776 4.24501 349.182 4.65055L350.895 6.36393L349.182 8.07733C348.776 8.48287 348.776 9.14039 349.182 9.54594C349.588 9.95148 350.245 9.95148 350.651 9.54594L352.364 7.83254L354.077 9.54591C354.483 9.95145 355.14 9.95145 355.546 9.54591C355.952 9.14036 355.952 8.48285 355.546 8.0773L353.833 6.36393L355.546 4.65058C355.951 4.24504 355.951 3.58752 355.546 3.18197C355.14 2.77643 354.483 2.77643 354.077 3.18197L352.364 4.89532L350.651 3.18195C350.245 2.7764 349.588 2.7764 349.182 3.18195Z" fill="#44C059"/>
</svg>
